<?xml version="1.0" encoding="UTF-8"?>
<svg width="89px" height="30px" viewBox="0 0 89 30" version="1.1" xmlns="http://www.w3.org/2000/svg" xmlns:xlink="http://www.w3.org/1999/xlink">
    <title>编组备份 9@1x</title>
    <g id="页面-1" stroke="none" stroke-width="1" fill="none" fill-rule="evenodd">
        <g id="1" transform="translate(-537, -235)">
            <g id="编组-19备份" transform="translate(537, 235)">
                <g id="编组-18">
                    <path d="M6.02803194,12.3541057 C6.02803194,14.0183602 4.67827072,15.3675657 3.0133308,15.3675657 C1.34976122,15.3675657 0,14.0183602 0,12.3541057 C0,10.6898512 1.34976122,9.34064571 3.0133308,9.34064571 C4.67827072,9.34064571 6.02803194,10.6898512 6.02803194,12.3541057" id="Fill-641" fill="#00CAFF"></path>
                    <path d="M14.2477582,20.1688445 C14.2477582,22.055003 12.7184821,23.5836495 10.8315726,23.5836495 C8.94463726,23.5836495 7.41536122,22.055003 7.41536122,20.1688445 C7.41536122,18.282686 8.94463726,16.7540396 10.8315726,16.7540396 C12.7184821,16.7540396 14.2477582,18.282686 14.2477582,20.1688445" id="Fill-642" fill="#00C7CC"></path>
                    <path d="M10.8129308,0 C13.3096426,0 15.3336122,2.04094344 15.3336122,4.5585438 C15.3336122,7.07617 13.3096426,9.11711344 10.8129308,9.11711344 C8.31619316,9.11711344 6.29224943,7.07617 6.29224943,4.5585438 C6.29224943,2.04094344 8.31619316,0 10.8129308,0" id="Fill-643" fill="#1882F0"></path>
                    <path d="M20.6673202,27.9919312 C20.6673202,29.1014256 19.7683757,30 18.6584243,30 C17.548473,30 16.6481582,29.1014256 16.6481582,27.9919312 C16.6481582,26.8824369 17.548473,25.9838625 18.6584243,25.9838625 C19.7683757,25.9838625 20.6673202,26.8824369 20.6673202,27.9919312" id="Fill-644" fill="#A068FF"></path>
                </g>
                <path d="M74.9354736,14.9068809 L70.9355223,14.9068809 L70.9780029,14.8192151 C71.1109261,14.5534782 71.642593,13.6795857 72.9252333,13.5795919 L73.1047223,13.5782221 C74.2982903,13.5782221 74.7463664,14.2590018 74.9135481,14.8288036 L74.9354736,14.9068809 Z M76.5099709,12.738574 C75.713828,12.0810805 74.5586554,11.689324 73.4185306,11.689324 L72.9375664,11.689324 L72.9224926,11.689324 C71.6741109,11.738636 70.6080105,12.0797107 69.7529428,12.7043295 L69.7392394,12.7152878 C68.4949687,13.7097208 67.8399709,14.9479743 67.7906386,16.3971736 C67.7618614,17.4697098 68.0811512,18.3627793 68.7402599,19.0504078 C69.7159436,20.0694969 71.2767375,20.4530347 72.411355,20.4722116 L72.415466,20.4722116 C72.6045732,20.4722116 72.7539405,20.4722116 72.9197519,20.444816 C74.4709535,20.309208 75.7864561,19.7010266 76.7278554,18.6860469 L76.7442995,18.6682398 C76.8457048,18.5600273 76.926555,18.4655126 76.9991831,18.3737375 C77.0128865,18.3573001 77.0252196,18.339493 77.034812,18.3216859 C77.1759573,18.1395054 77.3033991,17.9559552 77.4130265,17.7724308 C77.4267299,17.7505143 77.4267299,17.721749 77.4143968,17.6984627 C77.4020637,17.6765463 77.3773976,17.6614787 77.3499907,17.6614787 L74.7011709,17.6614787 C74.5750995,17.6614787 74.4558797,17.7162699 74.3722888,17.8093889 C74.2736242,17.9217107 74.1502934,18.031293 74.0159998,18.1258077 C73.7076728,18.3422326 73.3431618,18.4792104 72.9622325,18.5203037 C72.9457884,18.5216735 72.927974,18.5244131 72.9115299,18.5285224 C72.8060135,18.5531784 72.6950158,18.5531784 72.5566113,18.5531784 C71.9056987,18.5175642 71.3795132,18.2819623 71.0382979,17.8737685 C70.7669702,17.5491569 70.6148622,17.1026093 70.6573428,16.7615346 L70.6641945,16.7081132 L77.3623238,16.709483 C77.595282,16.709483 77.7885002,16.5259327 77.8008333,16.2930705 C77.8186478,15.9479123 77.8090554,15.6054677 77.7693154,15.2739815 C77.6775025,14.5192596 77.3856196,13.4659003 76.5099709,12.738574 L76.5099709,12.738574 Z M37.8285717,12.029029 C37.8134979,12.0125916 37.7929428,12.0030032 37.7710173,12.0030032 L35.2743055,12.0030032 C35.0632728,12.0030032 34.8823877,12.1536788 34.8426478,12.3605152 L33.3407786,20.29688 C33.3366675,20.3174267 33.3421489,20.3393431 33.3558523,20.3571502 C33.3695557,20.3735876 33.3901109,20.383176 33.4120363,20.383176 L35.9101185,20.383176 C36.1211512,20.383176 36.3020363,20.2325004 36.3417763,20.025664 L37.8436455,12.0892992 C37.8477565,12.0687525 37.8422751,12.0454663 37.8285717,12.029029 L37.8285717,12.029029 Z M28.9091694,14.7808614 L28.9091694,14.7808614 L28.9420576,14.7452471 L34.1300698,9.17309342 C34.1437732,9.15939564 34.1519953,9.14021875 34.1519953,9.11967208 C34.1519953,9.07857874 34.1204774,9.04707384 34.0793671,9.04707384 L30.9797048,9.04707384 C30.860485,9.04707384 30.7440059,9.09638585 30.6604151,9.18405165 C29.9149747,9.97164818 26.7070554,13.4535723 26.6741671,13.4891865 L27.4867542,9.13336986 C27.4908652,9.11145341 27.4853839,9.08953696 27.4716805,9.07309963 C27.4566067,9.05666229 27.4360516,9.04707384 27.4141261,9.04707384 L24.7735284,9.04570407 C24.563866,9.04570407 24.3816105,9.19637965 24.3418706,9.40184636 L22.2370766,20.2955102 C22.2329656,20.3174267 22.238447,20.3393431 22.2521504,20.3557805 C22.2658538,20.3735876 22.286409,20.383176 22.3083344,20.383176 L24.9818204,20.383176 C25.1928531,20.383176 25.3737382,20.2325004 25.4134782,20.025664 L26.2246949,15.7218989 L29.2613215,20.1900373 C29.343542,20.3105778 29.4792059,20.383176 29.6244622,20.383176 L32.5555725,20.383176 C32.5829793,20.383176 32.6076455,20.3681085 32.6199786,20.3448222 C32.6323116,20.3201662 32.6309413,20.2914009 32.6158675,20.2694844 L28.9091694,14.7808614 Z M63.5549626,18.401133 C63.5549626,18.401133 60.2291938,18.6997447 60.370339,16.2204722 C60.5361504,13.3165945 64.4402036,13.843959 64.4402036,13.843959 L63.5549626,18.401133 Z M68.4565991,9.0744694 C68.4428957,9.05666229 68.4223405,9.04707384 68.4004151,9.04707384 L65.7269291,9.04707384 C65.5172668,9.04707384 65.3363816,9.19637965 65.2966417,9.40321614 L64.8197884,11.861916 C64.8197884,11.861916 60.6087786,11.2866093 58.6437337,13.5535661 C56.7663907,15.7191593 56.7663907,20.3845458 62.7396348,20.3845458 L66.2654736,20.3845458 C66.3011025,20.3845458 66.33125,20.35852 66.3381017,20.3242756 L68.4716728,9.13473964 C68.4757839,9.11282319 68.4703025,9.09090674 68.4565991,9.0744694 L68.4565991,9.0744694 Z M81.5075314,14.9068809 L81.5513824,14.8192151 C81.7213048,14.479536 82.2529976,13.6768461 83.5260196,13.5795919 L83.7315709,13.5795919 C84.900447,13.5795919 85.3471786,14.2590018 85.5157306,14.8288036 L85.5376561,14.9068809 L81.5075314,14.9068809 Z M88.3701017,15.2753512 C88.2796592,14.5192596 87.9877763,13.4659003 87.1121535,12.738574 C86.3036516,12.0728619 85.1772561,11.6906938 84.0193428,11.689324 L83.539723,11.689324 L83.5232789,11.6906938 C81.9172637,11.750964 80.9114584,12.2783286 80.3509884,12.7098086 C79.076596,13.696023 78.4174614,14.9356463 78.3900546,16.3971736 C78.3530554,17.4642307 78.6654934,18.3545606 79.3177763,19.0408194 C80.2920637,20.0653875 81.8487466,20.4516649 82.9833641,20.4722116 L82.9970675,20.4722116 L83.0107709,20.4722116 C83.2122113,20.4722116 83.3670599,20.469472 83.5205382,20.444816 C85.0703694,20.3105778 86.3858721,19.7023963 87.3300379,18.6860469 L87.350593,18.6627606 C87.4492576,18.555918 87.5287375,18.4641428 87.5999953,18.3737375 C87.6136987,18.3573001 87.6260318,18.339493 87.6356242,18.3216859 C87.7767694,18.1408752 87.9041854,17.9559552 88.0151831,17.7738005 C88.0275162,17.7505143 88.0288865,17.721749 88.0151831,17.6998325 C88.00285,17.6765463 87.9781839,17.6614787 87.9521474,17.6614787 L85.308809,17.6614787 C85.1799968,17.6614787 85.0580363,17.7176396 84.9744455,17.8162378 C84.8511147,17.9586947 84.3879649,18.4340077 83.5643892,18.5203037 C83.5479451,18.5230433 83.5301306,18.5257828 83.5123162,18.5298922 C83.4067998,18.5531784 83.2971725,18.5531784 83.1573976,18.5531784 C82.5092516,18.518934 82.0049656,18.302509 81.658269,17.9134921 C81.2882766,17.4971054 81.214304,16.9957666 81.2293778,16.7656439 L81.2334888,16.709483 L87.9631101,16.709483 C88.1974386,16.709483 88.3892865,16.5273025 88.4016196,16.2930705 C88.4208044,15.949282 88.4098417,15.6068375 88.3701017,15.2753512 L88.3701017,15.2753512 Z M53.5310645,18.3079881 L53.5310645,18.3079881 C53.5105093,18.3134672 53.0007679,18.4463357 52.3745215,18.4463357 C50.9535025,18.4463357 50.171063,17.7477748 50.171063,16.4779905 C50.3478113,14.1987315 52.2840789,13.856287 53.421463,13.856287 C53.9709443,13.856287 54.3642325,13.9329946 54.382047,13.9357341 L53.5310645,18.3079881 Z M57.5981884,11.9591703 C57.5858554,11.9427329 57.5680409,11.9317747 57.5474858,11.9304049 C56.3457215,11.7934271 55.242596,11.7249382 54.2696789,11.7249382 C51.6263405,11.7249382 50.5519922,12.2344957 50.1463968,12.4262646 L50.1381747,12.4303739 C47.1234478,14.0836702 47.3235177,16.857419 47.5304394,17.5587454 C48.6362797,21.291313 53.1049139,20.3037289 53.1049139,20.3037289 L53.0775071,20.4037227 C52.9377322,20.9009521 52.6869595,21.2954224 52.3087451,21.6104713 C51.6825246,22.1282474 50.2765535,22.7144866 47.4632926,22.1720803 C47.4345154,22.1666012 47.4043679,22.1638616 47.3742204,22.1638616 C47.2878888,22.1638616 47.2029276,22.1885176 47.1316698,22.2364599 C47.0343755,22.3008394 46.9658584,22.4035728 46.9439588,22.5186342 L46.5794478,24.3691526 C46.5767071,24.3883295 46.5808181,24.4088762 46.5917808,24.4253135 C46.6027436,24.4403811 46.620558,24.4513393 46.6411132,24.4554486 C46.8055542,24.4814744 46.9960059,24.5116095 47.2070386,24.5417446 L47.3152957,24.5568122 C47.37285,24.5650309 47.4290341,24.5732495 47.4879588,24.5800984 C47.5331801,24.5869473 47.5797717,24.5924264 47.6263633,24.5979055 C47.6702143,24.6033846 47.7140652,24.6088638 47.7579162,24.6143429 C48.4444576,24.6978993 49.0638265,24.7376229 49.6530736,24.7376229 C50.6205093,24.7376229 51.496158,24.6266709 52.2525611,24.4075064 C53.3310204,24.0828948 54.1394964,23.5911445 54.7246325,22.9035159 C55.5742189,21.9173016 55.9003603,20.8434214 56.2347238,19.0846523 L57.6105215,12.016701 C57.6146325,11.9961543 57.6105215,11.9756076 57.5981884,11.9591703 L57.5981884,11.9591703 Z M35.2222325,10.8784412 L37.721685,10.8784412 C37.9327177,10.8784412 38.1136029,10.7277657 38.1533428,10.5209292 L38.4178189,9.13336986 C38.4219299,9.11145341 38.4164485,9.08953696 38.4027451,9.07309963 C38.3890417,9.05666229 38.3684865,9.04707384 38.3465611,9.04707384 L35.8498234,9.04707384 C35.6387907,9.04707384 35.4579314,9.19637965 35.4181915,9.40321614 L35.1509747,10.7907754 C35.1468637,10.8126919 35.1523451,10.8346083 35.1660485,10.8510457 C35.1797519,10.867483 35.2003071,10.8784412 35.2222325,10.8784412 L35.2222325,10.8784412 Z M46.9535512,14.8808552 L46.9590067,14.8233245 L46.9590067,14.8123663 L46.9644881,14.7466169 L46.9809322,14.5247387 C46.9823766,14.5151503 46.9823766,14.504192 46.9823766,14.4946036 C46.9877839,13.6631483 46.6890751,12.998806 46.1203831,12.5700913 C46.1176424,12.5673517 46.1135314,12.5659819 46.1107907,12.5632424 C45.5078401,12.2358654 44.8514721,12.0687525 44.1594493,12.0687525 C43.2399755,12.0687525 42.3958447,12.3564059 41.7641428,12.6070753 C41.7641428,12.6070753 41.9093991,12.0030032 41.3489291,12.0030032 L39.134482,12.0030032 C39.1002234,12.0030032 39.0700759,12.0276592 39.0632242,12.0619036 L37.4791344,20.29688 C37.4750234,20.3174267 37.4805048,20.3393431 37.4942082,20.3571502 C37.5079116,20.3735876 37.5284668,20.383176 37.5503922,20.383176 L39.907355,20.383176 C40.1170173,20.383176 40.2979025,20.2338702 40.3376424,20.0270337 L40.9487892,16.8711168 C41.0954158,16.0492758 41.328374,15.3863033 41.6188865,14.9548232 C41.9258432,14.4822756 42.4342143,14.1891431 42.9453519,14.1891431 C44.2293367,14.1891431 44.1512272,15.2958979 43.8840105,16.5752448 L43.8826401,16.5834634 L43.1933839,20.29688 C43.1892728,20.3187965 43.1961246,20.3407129 43.209828,20.3571502 C43.2235314,20.3735876 43.2440865,20.383176 43.266012,20.383176 L44.4965535,20.383176 L45.5667649,20.383176 C45.7764272,20.383176 45.9586827,20.2338702 45.9984227,20.0270337 C46.0066447,19.9818311 46.8905154,15.400001 46.8959968,15.3739753 C46.928885,15.1822063 46.9425884,15.0246818 46.9535512,14.8808552 L46.9535512,14.8808552 Z" id="Fill-645" fill="#1882F0"></path>
            </g>
        </g>
    </g>
</svg>