<?xml version="1.0" encoding="UTF-8"?>
<svg width="21px" height="30px" viewBox="0 0 21 30" version="1.1" xmlns="http://www.w3.org/2000/svg" xmlns:xlink="http://www.w3.org/1999/xlink">
    <title>bai@1x</title>
    <g id="页面-1" stroke="none" stroke-width="1" fill="none" fill-rule="evenodd">
        <g id="1" transform="translate(-537, -321)" fill="#FFFFFF">
            <g id="编组-18" transform="translate(537, 321)">
                <path d="M6.02803194,12.3541057 C6.02803194,14.0183602 4.67827072,15.3675657 3.0133308,15.3675657 C1.34976122,15.3675657 0,14.0183602 0,12.3541057 C0,10.6898512 1.34976122,9.34064571 3.0133308,9.34064571 C4.67827072,9.34064571 6.02803194,10.6898512 6.02803194,12.3541057  M14.2477582,20.1688445 C14.2477582,22.055003 12.7184821,23.5836495 10.8315726,23.5836495 C8.94463726,23.5836495 7.41536122,22.055003 7.41536122,20.1688445 C7.41536122,18.282686 8.94463726,16.7540396 10.8315726,16.7540396 C12.7184821,16.7540396 14.2477582,18.282686 14.2477582,20.1688445  M10.8129308,0 C13.3096426,0 15.3336122,2.04094344 15.3336122,4.5585438 C15.3336122,7.07617 13.3096426,9.11711344 10.8129308,9.11711344 C8.31619316,9.11711344 6.29224943,7.07617 6.29224943,4.5585438 C6.29224943,2.04094344 8.31619316,0 10.8129308,0  M20.6673202,27.9919312 C20.6673202,29.1014256 19.7683757,30 18.6584243,30 C17.548473,30 16.6481582,29.1014256 16.6481582,27.9919312 C16.6481582,26.8824369 17.548473,25.9838625 18.6584243,25.9838625 C19.7683757,25.9838625 20.6673202,26.8824369 20.6673202,27.9919312" id="形状结合"></path>
            </g>
        </g>
    </g>
</svg>