<?xml version="1.0" encoding="UTF-8"?>
<svg width="200px" height="102px" viewBox="0 0 1999 1019" version="1.1" xmlns="http://www.w3.org/2000/svg" xmlns:xlink="http://www.w3.org/1999/xlink">
    <title>金蝶 Logo 中文</title>
    <g id="kingdee-logo-cn" stroke="none" stroke-width="1" fill="none" fill-rule="evenodd">
<path d="M0 0 C33.13 -0.14 33.13 -0.14 47 0 C51.56 0.08 56.12 0.2 60.68 0.36 C65.79 0.55 70.89 0.76 76 1 C77.72 2.94 79.44 4.88 81.15 6.83 C81.76 7.55 82.37 8.26 83 9 C83.44 9.55 83.88 10.1 84.34 10.67 C85.48 12.17 86.62 13.68 87.75 15.19 C89.48 17.47 91.23 19.75 93 22 C94.37 23.69 95.76 25.37 97.16 27.04 C99.43 29.71 101.71 32.36 104 35 C104.68 35.79 105.36 36.59 106.06 37.41 C107.42 38.96 108.8 40.5 110.19 42.04 C111.12 43.03 112.06 44.02 113 45 C118.95 51.05 124.97 57.03 131 63 C131.33 63.27 131.33 63.27 132.98 64.62 C140.03 70.37 147.02 76.17 154 82 C157.97 84.87 161.95 87.71 165.95 90.53 C167.63 91.7 169.31 92.85 171 94 C173.58 95.69 176.17 97.35 178.77 99 C182.51 101.34 186.25 103.67 190 106 C198.91 110.62 207.82 115.24 217 120 C224.92 123.3 232.84 126.6 241 130 C244.96 131.32 244.96 131.32 265 138 C271.6 139.65 278.2 141.3 285 143 C284.34 144.65 283.68 146.3 283 148 C282.22 149.07 281.45 150.13 280.65 151.23 C271.95 163.23 271.95 163.23 268.12 168.67 C265.72 172.11 263.32 175.56 260.94 179.01 C259.85 180.57 258.77 182.12 257.68 183.67 C257.13 184.44 256.57 185.21 256 186 C254.12 188.47 252.22 190.92 250.3 193.36 C249.87 193.9 249.44 194.44 249 195 C247.02 195.33 245.04 195.66 243 196 C236.07 194.02 229.14 192.04 222 190 C213.99 186.7 205.97 183.4 198 180 C191.3 177.07 184.65 174.04 178 171 C177.88 172.25 177.76 173.49 177.63 174.78 C177.54 175.6 177.45 176.42 177.35 177.27 C177.24 178.17 177.12 179.07 177 180 C176.69 181.9 176.37 183.8 176.03 185.69 C175.67 187.65 175.3 189.61 174.94 191.56 C174.75 192.57 174.56 193.58 174.37 194.62 C173.92 197.08 173.46 199.54 173 202 C171.35 203.65 169.7 205.3 168 207 C126.42 207 84.84 207 42 207 C41.67 209.97 41.34 212.94 41 216 C38.69 228.87 36.38 241.74 34 255 C92.08 255 150.16 255 210 255 C209.67 258.3 209.34 261.6 209 265 C206.69 277.87 204.38 290.74 202 304 C200.35 305.98 198.7 307.96 197 310 C139.58 310 82.16 310 23 310 C22.67 313.63 22.34 317.26 22 321 C19.19 336.35 19.19 336.35 5 414 C5 414.99 5 415.98 5 417 C13.25 417 21.5 417 30 417 C32.64 415.02 32.64 415.02 46 405 C46.74 404.33 46.74 404.33 50.5 400.94 C52.33 399.29 54.16 397.64 56 396 C57.27 394.9 58.54 393.79 59.81 392.69 C61.21 391.46 62.61 390.23 64 389 C66.86 386.38 69.68 383.72 72.5 381.06 C73.23 380.38 73.95 379.69 74.7 378.99 C76.47 377.33 78.24 375.66 80 374 C80.45 373.47 80.91 372.95 81.37 372.41 C83.24 370.26 85.11 368.12 87 366 C87.4 365.59 87.4 365.59 89.41 363.53 C90.1 362.86 90.79 362.19 91.5 361.5 C93.01 360.01 94.51 358.51 96 357 C96.56 356.39 97.13 355.78 97.71 355.14 C99.49 353.11 101.25 351.06 103 349 C103.97 347.87 104.95 346.73 105.93 345.6 C110.66 340.1 115.37 334.58 120 329 C120.66 328.67 121.32 328.34 122 328 C124.64 328 127.28 328 130 328 C149.12 337.48 149.12 337.48 157 341.55 C162.35 344.34 167.68 347.16 173 350 C173.99 350.66 174.98 351.32 176 352 C175.34 353.65 174.68 355.3 174 357 C173.43 357.63 172.86 358.26 172.28 358.91 C165.76 366.13 165.76 366.13 163.23 369.02 C162.7 369.63 162.17 370.25 161.62 370.88 C159.19 373.66 156.73 376.43 154.25 379.17 C152.36 381.25 150.46 383.31 148.55 385.37 C146.94 387.06 145.32 388.74 143.68 390.41 C141.47 392.66 139.24 394.88 137 397.09 C136 398.07 135 399.03 134 400 C133.26 400.69 132.51 401.38 131.75 402.09 C131.11 402.66 130.47 403.23 129.81 403.81 C128.55 404.88 127.28 405.94 126 407 C124.26 408.4 122.51 409.8 120.76 411.2 C119.87 411.91 118.97 412.63 118.05 413.36 C117.38 413.9 116.7 414.44 116 415 C143.18 415.81 170.37 416.22 197.56 416.56 C198.44 416.57 199.31 416.58 200.21 416.6 C211.14 416.73 222.07 416.87 233 417 C232.67 420.3 232.34 423.6 232 427 C229.69 439.21 227.38 451.42 225 464 C223.68 465.32 222.36 466.64 221 468 C220.01 468.33 219.02 468.66 218 469 C48.71 469 -120.58 469 -295 469 C-294.67 465.37 -294.34 461.74 -294 458 C-292.02 447.11 -290.04 436.22 -288 425 C-287.01 423.35 -286.02 421.7 -285 420 C-283.35 419.01 -281.7 418.02 -280 417 C-241.39 417 -202.78 417 -163 417 C-165.31 413.37 -167.62 409.74 -170 406 C-170.56 405.28 -171.12 404.56 -171.7 403.82 C-174.48 400.23 -177.26 396.63 -180 393 C-182.97 389.01 -185.92 385 -188.86 380.98 C-193.53 374.62 -198.25 368.3 -203 362 C-203.33 361.34 -203.66 360.68 -204 360 C-204 358.02 -204 356.04 -204 354 C-202.35 352.02 -200.7 350.04 -199 348 C-185.02 341.3 -171.02 334.63 -157 328 C-155.68 327.67 -154.36 327.34 -153 327 C-147.15 334.27 -141.32 341.56 -135.6 348.93 C-131.95 353.66 -128.34 358.41 -124.76 363.2 C-121.61 367.44 -118.48 371.7 -115.39 375.99 C-113.05 379.26 -110.74 382.55 -108.45 385.86 C-107.29 387.56 -106.14 389.28 -105 391 C-103.11 393.94 -101.25 396.9 -99.4 399.87 C-96.91 403.9 -94.45 407.94 -92 412 C-90.68 413.65 -89.36 415.3 -88 417 C-82.39 417 -76.78 417 -71 417 C-63.88 381.42 -57.53 345.69 -51 310 C-108.75 310 -166.5 310 -226 310 C-225.67 307.36 -225.67 307.36 -224 294 C-223.74 292.4 -223.49 290.8 -223.22 289.15 C-222.98 287.84 -222.74 286.53 -222.49 285.22 C-222.36 284.51 -222.23 283.8 -222.1 283.07 C-221.69 280.88 -221.28 278.69 -220.88 276.5 C-220.59 274.98 -220.31 273.47 -220.04 271.95 C-219.36 268.3 -218.68 264.65 -218 261 C-217.34 259.68 -216.68 258.36 -216 257 C-215.01 256.34 -214.02 255.68 -213 255 C-156.24 254.67 -99.48 254.34 -41 254 C-38.36 239.48 -35.72 224.96 -33 210 C-32.67 209.01 -32.34 208.02 -32 207 C-75.56 207 -119.12 207 -164 207 C-163.17 201.56 -163.17 201.56 -159 174 C-161.92 175.24 -164.85 176.49 -167.86 177.77 C-198.94 190.97 -198.94 190.97 -210.47 195.64 C-215.53 197.67 -220.6 199.66 -225.69 201.62 C-231.38 203.78 -237.09 205.88 -242.81 207.95 C-247.54 209.65 -252.26 211.33 -257 213 C-257.66 213 -258.32 213 -259 213 C-259 210.69 -259 208.38 -259 206 C-255.7 188.18 -252.4 170.36 -249 152 C-248.01 150.02 -247.02 148.04 -246 146 C-244 145.07 -241.99 144.15 -239.97 143.26 C-238.99 142.84 -238.01 142.43 -237 142 C-232.52 140.26 -228.01 138.57 -223.51 136.89 C-217.39 134.59 -211.29 132.25 -205.21 129.87 C-202.47 128.79 -199.74 127.68 -197.02 126.55 C-192.66 124.72 -188.33 122.85 -184.01 120.95 C-180.33 119.33 -176.66 117.68 -173 116 C-167.92 113.65 -162.86 111.25 -157.81 108.81 C-153.19 106.57 -148.59 104.29 -144 102 C-143.12 101.56 -142.24 101.12 -141.33 100.67 C-139 99.5 -136.68 98.32 -134.38 97.12 C-132.09 95.91 -129.82 94.68 -127.56 93.43 C-123.5 91.16 -119.46 88.85 -115.44 86.52 C-111.38 84.13 -107.33 81.73 -103.3 79.28 C-100.94 77.83 -98.58 76.37 -96.23 74.88 C-92.71 72.62 -89.21 70.33 -85.72 68.02 C-81.81 65.41 -77.92 62.78 -74.04 60.11 C-71.23 58.16 -68.43 56.2 -65.64 54.21 C-63.26 52.48 -60.89 50.74 -58.52 48.99 C-56.34 47.34 -54.16 45.68 -52 44 C-49.15 41.75 -46.32 39.48 -43.5 37.19 C-41.57 35.6 -39.65 34.02 -37.73 32.42 C-36.17 31.14 -34.6 29.87 -33.02 28.61 C-31.24 27.18 -29.47 25.75 -27.71 24.31 C-26.82 23.55 -25.92 22.78 -25 22 C-23.36 20.53 -21.74 19.05 -20.12 17.56 C-17.93 15.53 -15.75 13.49 -13.57 11.46 C-10.33 8.45 -7.03 5.5 -3.73 2.55 C-3.44 2.29 -3.44 2.29 -2 1 C-1.34 0.67 -0.68 0.34 0 0 Z M37 55 C36.57 55.36 36.14 55.72 35.69 56.09 C31.26 59.8 26.82 63.48 22.34 67.12 C20.88 68.29 19.41 69.46 17.93 70.62 C14.69 73.09 11.42 75.52 8.14 77.95 C7.81 78.19 7.81 78.19 6.1 79.45 C3.9 81.08 1.7 82.72 -0.49 84.37 C-4.47 87.34 -8.46 90.3 -12.48 93.21 C-14.18 94.41 -15.88 95.61 -17.58 96.79 C-21.97 99.78 -26.39 102.72 -30.82 105.63 C-32.55 106.76 -34.27 107.88 -36 109 C-36.39 109.26 -36.39 109.26 -38.39 110.55 C-41.46 112.54 -44.54 114.52 -47.64 116.47 C-51.93 119.14 -56.25 121.76 -60.57 124.37 C-64.54 126.73 -68.53 129.07 -72.53 131.38 C-74.68 132.59 -76.84 133.8 -79 135 C-83.36 137.35 -87.76 139.65 -92.16 141.93 C-96.77 144.3 -101.38 146.66 -106 149 C-107.32 149.99 -108.64 150.98 -110 152 C-26.18 152 57.64 152 144 152 C142.68 150.68 141.36 149.36 140 148 C134.72 144.7 129.44 141.4 124 138 C119.06 134.28 114.13 130.54 109.23 126.75 C107.85 125.67 106.48 124.58 105.11 123.48 C103.46 122.12 101.82 120.76 100.19 119.38 C98.11 117.6 96.06 115.8 94 114 C93.11 113.22 92.22 112.45 91.3 111.64 C89.42 109.95 87.54 108.24 85.68 106.52 C84.44 105.36 83.22 104.18 82 103 C74.61 95.72 67.3 88.36 60 81 C59.41 80.28 58.83 79.57 58.23 78.83 C53.98 73.64 49.73 68.46 45.44 63.31 C45 62.79 44.56 62.27 44.12 61.73 C43.08 60.49 42.04 59.24 41 58 C40.67 57.5 40.67 57.5 39 55 C38.34 55 37.68 55 37 55 Z " fill="#3C84F1" transform="translate(1031,228)"/>
<path d="M0 0 C19.47 0 38.94 0 59 0 C56.04 18.42 56.04 18.42 54.48 27.33 C51.51 43.92 48.2 60.45 45 77 C65.13 77 85.26 77 106 77 C105.67 80.63 105.34 84.26 105 88 C94.44 145.09 83.88 202.18 73 261 C71.35 266.28 69.7 271.56 68 277 C66.85 278.81 66.85 278.81 61 288 C59.51 289.32 59.51 289.32 52 296 C50.51 296.66 50.51 296.66 43 300 C41.68 300.33 40.36 300.66 39 301 C27.45 301.33 15.9 301.66 4 302 C-0.95 329.06 -5.9 356.12 -11 384 C-11.33 384.66 -11.66 385.32 -12 386 C-3.42 385.01 5.16 384.02 14 383 C15.98 383 17.96 383 20 383 C19.34 380.03 18.68 377.06 18 374 C17.34 368.72 17.34 368.72 14 342 C14 339.69 14 337.38 14 335 C15.65 333.02 17.3 331.04 19 329 C23.62 328.5 23.62 328.5 47 326 C48.65 326 50.3 326 52 326 C55.63 352.07 59.26 378.14 63 405 C63 405.99 63 406.98 63 408 C70.92 405.03 78.84 402.06 87 399 C90.8 397.18 90.8 397.18 110 388 C119.88 382.39 119.88 382.39 123.62 380.21 C125.42 379.15 127.21 378.08 129 377 C130.61 375.99 132.21 374.98 133.81 373.95 C136.09 372.46 138.36 370.95 140.62 369.43 C142.07 368.45 143.51 367.45 144.95 366.46 C146.29 365.5 147.63 364.54 148.96 363.56 C150.76 362.22 152.54 360.87 154.31 359.5 C157.89 356.69 161.45 353.84 165 351 C149.49 350.84 149.49 350.84 71 350 C71.33 346.7 71.66 343.4 72 340 C73.98 329.44 75.96 318.88 78 308 C78.66 306.68 79.32 305.36 80 304 C80.99 303.34 81.98 302.68 83 302 C124.58 302 166.16 302 209 302 C209.33 298.37 209.66 294.74 210 291 C210.49 288.69 210.49 288.69 213 277 C214.65 275.68 216.3 274.36 218 273 C236.48 273 254.96 273 274 273 C273.67 276.3 273.34 279.6 273 283 C272.51 285.81 272.51 285.81 270 300 C269.67 300.66 269.34 301.32 269 302 C314.87 302 360.74 302 408 302 C407.67 305.63 407.34 309.26 407 313 C406.01 318.28 406.01 318.28 401 345 C400.17 345.83 400.17 345.83 396 350 C378.35 350.16 378.35 350.16 289 351 C290.32 352.65 290.32 352.65 297 361 C298.05 362.19 299.1 363.38 300.19 364.6 C301.12 365.61 302.06 366.62 303 367.62 C304.65 369.4 306.3 371.17 308 373 C311.96 376.63 315.92 380.26 320 384 C326.27 388.62 332.54 393.24 339 398 C344.48 401.22 349.96 404.44 355.49 407.59 C357.01 408.44 358.54 409.29 360.07 410.13 C361.31 410.79 362.55 411.44 363.79 412.08 C365.67 413.02 367.55 413.96 369.45 414.88 C370.96 415.59 372.48 416.3 374 417 C382.3 420.74 390.64 424.39 399 428 C398.34 429.32 397.68 430.64 397 432 C393.59 436.03 390.17 440.05 386.72 444.05 C385.61 445.31 384.49 446.56 383.37 447.81 C381.31 450.05 379.24 452.28 377.17 454.5 C375.78 456 374.39 457.5 373 459 C371.12 461.12 369.25 463.26 367.4 465.41 C366.94 465.94 366.48 466.46 366 467 C365.44 467.56 364.89 468.13 364.32 468.71 C363.88 469.14 363.45 469.56 363 470 C360.69 470.33 358.38 470.66 356 471 C353.03 469.35 353.03 469.35 338 461 C327.06 453.55 327.06 453.55 322 450 C320.88 449.2 319.76 448.39 318.65 447.58 C316.69 446.12 314.74 444.65 312.79 443.17 C310.03 441.03 307.29 438.87 304.56 436.69 C303.67 435.95 302.78 435.21 301.86 434.45 C300.92 433.64 299.97 432.83 299 432 C297.32 430.51 295.66 429.01 294.01 427.5 C291.82 425.48 289.64 423.45 287.48 421.41 C286.11 420.1 284.75 418.78 283.4 417.46 C281.59 415.65 279.79 413.83 278 412 C275.44 408.91 272.88 405.81 270.36 402.7 C268.95 400.93 267.56 399.16 266.18 397.38 C263.77 394.26 261.38 391.13 259 388 C258.01 386.35 257.02 384.7 256 383 C255.34 382.67 254.68 382.34 254 382 C253.67 385.63 253.34 389.26 253 393 C248.05 418.74 243.1 444.48 238 471 C237.34 472.65 236.68 474.3 236 476 C234.35 477.32 232.7 478.64 231 480 C212.85 480 194.7 480 176 480 C176.33 476.04 176.66 472.08 177 468 C181.95 441.93 186.9 415.86 192 389 C192 387.68 192 386.36 192 385 C191.22 385.73 190.45 386.45 189.65 387.2 C186.12 390.49 182.58 393.77 179 397 C174.38 401.05 169.69 405.02 165 409 C158.73 413.62 152.46 418.24 146 423 C136.44 429.18 136.44 429.18 132.6 431.57 C130.74 432.72 128.87 433.87 127 435 C125.22 436.04 123.44 437.07 121.65 438.08 C118.95 439.58 116.24 441.07 113.53 442.54 C111.67 443.53 109.81 444.52 107.94 445.49 C105.9 446.54 103.84 447.57 101.78 448.6 C95.22 451.79 88.61 454.9 82 458 C77.21 459.82 77.21 459.82 53 469 C46.4 470.98 39.8 472.96 33 475 C32.34 475 31.68 475 31 475 C29.35 462.13 27.7 449.26 26 436 C26 435.01 26 434.02 26 433 C25.69 433.04 25.69 433.04 24.1 433.22 C11.46 434.67 -1.2 436.05 -13.87 437.28 C-20.99 437.97 -28.11 438.65 -35.24 439.33 C-39.54 439.74 -43.84 440.16 -48.14 440.57 C-56.23 441.35 -64.33 442.12 -72.42 442.9 C-81.66 443.78 -90.9 444.67 -100.13 445.55 C-119.09 447.37 -138.04 449.19 -157 451 C-157.99 450.67 -158.98 450.34 -160 450 C-158.68 442.74 -158.68 442.74 -152 406 C-151.01 404.35 -150.02 402.7 -149 401 C-148.01 400.34 -147.02 399.68 -146 399 C-137.01 397.94 -128.01 396.92 -119 396 C-104.67 394.59 -90.34 393.3 -76 392 C-75.88 391.29 -75.76 390.58 -75.63 389.84 C-72.41 370.93 -69.04 352.06 -65.56 333.2 C-64.93 329.77 -64.3 326.34 -63.67 322.91 C-62.45 316.27 -61.22 309.64 -60 303 C-59.67 302.34 -59.34 301.68 -59 301 C-78.14 301 -97.28 301 -117 301 C-109.28 257.5 -101.35 214.04 -93.36 170.6 C-91.68 161.45 -90 152.3 -88.32 143.15 C-84.88 124.44 -81.44 105.72 -78 87 C-77.01 84.69 -76.02 82.38 -75 80 C-73.35 79.01 -71.7 78.02 -70 77 C-53.17 77 -36.34 77 -19 77 C-14 52 -14 52 -11.76 39.93 C-11.07 36.1 -10.38 32.27 -9.69 28.44 C-9.33 26.43 -8.96 24.43 -8.6 22.42 C-7.73 17.61 -6.86 12.81 -6 8 C-5.01 6.02 -4.02 4.04 -3 2 C-2.01 1.34 -1.02 0.68 0 0 Z M-46 132 C-51.46 160.76 -56.86 189.52 -62.12 218.31 C-62.25 218.98 -62.37 219.66 -62.5 220.35 C-64 228.57 -65.5 236.78 -67 245 C-67 245.66 -67 246.32 -67 247 C-57.76 247 -48.52 247 -39 247 C-38.01 242.71 -37.02 238.42 -36 234 C-35.31 230.51 -34.64 227.03 -34.01 223.53 C-33.83 222.57 -33.66 221.61 -33.47 220.63 C-32.9 217.52 -32.34 214.4 -31.77 211.29 C-31.37 209.11 -30.97 206.94 -30.57 204.76 C-29.53 199.06 -28.49 193.37 -27.45 187.68 C-26.39 181.85 -25.32 176.03 -24.25 170.2 C-22.16 158.8 -20.08 147.4 -18 136 C-18 134.68 -18 133.36 -18 132 C-27.24 132 -36.48 132 -46 132 Z M25 132 C18.4 167.97 11.8 203.94 5 241 C5 242.98 5 244.96 5 247 C8.96 247 12.92 247 17 247 C18.65 246.67 18.65 246.67 27 245 C28.65 243.68 30.3 242.36 32 241 C32.99 238.69 33.98 236.38 35 234 C41.27 200.67 47.54 167.34 54 133 C54 132.67 54 132.34 54 132 C44.43 132 34.86 132 25 132 Z " fill="#3C84F1" transform="translate(1495,226)"/>
<path d="M0 0 C17.16 0 34.32 0 52 0 C51.67 2.97 51.34 5.94 51 9 C48.03 25.17 45.06 41.34 42 58 C50.25 58.17 50.25 58.17 92 59 C92.33 56.03 92.66 53.06 93 50 C93.14 49.09 93.28 48.18 93.42 47.25 C93.56 46.49 93.7 45.72 93.85 44.94 C94.01 44.06 94.17 43.18 94.33 42.27 C94.42 41.81 94.42 41.81 94.85 39.5 C95.02 38.53 95.2 37.57 95.38 36.58 C95.94 33.53 96.5 30.48 97.06 27.44 C97.44 25.36 97.82 23.28 98.21 21.2 C99.13 16.13 100.07 11.07 101 6 C101.83 5.01 101.83 5.01 106 0 C123.16 0 140.32 0 158 0 C157.67 3.63 157.34 7.26 157 11 C155.88 17.19 154.76 23.39 153.64 29.58 C153.26 31.69 152.87 33.79 152.49 35.9 C151.95 38.93 151.4 41.96 150.85 44.98 C150.76 45.46 150.76 45.46 150.33 47.84 C150.17 48.72 150.01 49.6 149.85 50.51 C149.78 50.89 149.78 50.89 149.42 52.85 C149.35 53.2 149.35 53.2 149 55 C148.67 56.32 148.34 57.64 148 59 C164.17 59 180.34 59 197 59 C196.67 62.96 196.34 66.92 196 71 C194.02 81.23 192.04 91.46 190 102 C188.68 103.65 187.36 105.3 186 107 C185.34 107.33 184.68 107.66 184 108 C169.15 108 154.3 108 139 108 C138.3 112.15 137.6 116.29 136.88 120.56 C135.69 127.52 134.48 134.48 133.17 141.42 C131.49 150.28 129.75 159.14 128 168 C126.68 170.97 125.36 173.94 124 177 C122.68 178.98 121.36 180.96 120 183 C117.03 185.64 114.06 188.28 111 191 C107.7 192.32 104.4 193.64 101 195 C99.02 195.33 97.04 195.66 95 196 C50.78 196 6.56 196 -39 196 C-38.67 192.37 -38.34 188.74 -38 185 C-33.38 159.92 -28.76 134.84 -24 109 C-36.21 108.67 -48.42 108.34 -61 108 C-62.65 117.57 -64.3 127.14 -66 137 C-70.62 162.74 -75.24 188.48 -80 215 C-4.43 215.33 71.14 215.66 149 216 C148.67 219.63 148.34 223.26 148 227 C146.02 237.23 144.04 247.46 142 258 C140.35 259.65 138.7 261.3 137 263 C43.28 263 -50.44 263 -147 263 C-146.67 260.03 -146.34 257.06 -146 254 C-145.83 252.89 -145.65 251.78 -145.47 250.64 C-145.28 249.59 -145.09 248.54 -144.89 247.45 C-144.67 246.23 -144.45 245 -144.23 243.74 C-143.98 242.41 -143.74 241.09 -143.5 239.76 C-143.24 238.34 -142.99 236.92 -142.73 235.5 C-142.04 231.67 -141.34 227.84 -140.65 224.01 C-139.92 220 -139.2 215.99 -138.47 211.97 C-137.1 204.39 -135.72 196.8 -134.35 189.22 C-132.78 180.58 -131.22 171.94 -129.65 163.29 C-126.44 145.53 -123.22 127.76 -120 110 C-119.67 109.34 -119.34 108.68 -119 108 C-128.24 108 -137.48 108 -147 108 C-146.35 103.98 -145.69 99.97 -145.03 95.95 C-144.81 94.59 -144.58 93.23 -144.36 91.87 C-143.72 87.91 -143.07 83.95 -142.37 79.99 C-142.12 78.64 -141.86 77.29 -141.59 75.94 C-140.76 71.95 -139.89 67.97 -139 64 C-138.17 63.18 -138.17 63.18 -134 59 C-126.08 59 -118.16 59 -110 59 C-109.67 56.03 -109.34 53.06 -109 50 C-107.02 39.44 -105.04 28.88 -103 18 C-101.68 16.35 -100.36 14.7 -99 13 C-98.34 12.67 -97.68 12.34 -97 12 C-79.51 12 -62.02 12 -44 12 C-44.33 15.3 -44.66 18.6 -45 22 C-47.31 34.21 -49.62 46.42 -52 59 C-39.46 59 -26.92 59 -14 59 C-13.67 55.7 -13.34 52.4 -13 49 C-10.36 34.48 -7.72 19.96 -5 5 C-4.17 4.18 -4.17 4.18 0 0 Z M32 108 C29.03 124.17 26.06 140.34 23 157 C36.53 157 50.06 157 64 157 C65.15 156.34 65.15 156.34 71 153 C72.32 151.02 73.64 149.04 75 147 C76.32 141.72 77.64 136.44 79 131 C80.32 123.41 81.64 115.82 83 108 C66.17 108 49.34 108 32 108 Z " fill="#3C84F1" transform="translate(1754,226)"/>
<path d="M0 0 C8.25 0 16.5 0 25 0 C27.97 0.5 27.97 0.5 43 3 C48.61 4.65 54.22 6.3 60 8 C65.61 10.64 71.22 13.28 77 16 C81.95 19.3 86.9 22.6 92 26 C96.95 30.29 101.9 34.58 107 39 C110.96 43.62 114.92 48.24 119 53 C120.81 55.97 120.81 55.97 130 71 C132.31 76.28 134.62 81.56 137 87 C138.65 92.61 140.3 98.22 142 104 C142.66 107.63 143.32 111.26 144 115 C144.33 118.63 144.66 122.26 145 126 C145 130.62 145 135.24 145 140 C144.34 145.94 143.68 151.88 143 158 C141.35 164.27 139.7 170.54 138 177 C136.85 179.64 136.85 179.64 131 193 C128.03 198.28 125.06 203.56 122 209 C120.13 211.38 118.26 213.75 116.38 216.11 C115.59 217.06 114.81 218.02 114 219 C112.35 220.89 110.68 222.76 109 224.62 C107.68 226.07 106.36 227.51 105 229 C101.37 232.3 97.74 235.6 94 239 C89.05 242.3 84.1 245.6 79 249 C73.72 251.64 68.44 254.28 63 257 C57.06 258.98 51.12 260.96 45 263 C39.39 263.99 33.78 264.98 28 266 C17.77 266 7.54 266 -3 266 C-9.6 264.68 -16.2 263.36 -23 262 C-28.61 260.02 -34.22 258.04 -40 256 C-45.61 253.03 -51.22 250.06 -57 247 C-61.62 243.7 -66.24 240.4 -71 237 C-74.96 233.37 -78.92 229.74 -83 226 C-85.97 222.37 -88.94 218.74 -92 215 C-94.31 211.7 -96.62 208.4 -99 205 C-100.32 202.69 -100.32 202.69 -107 191 C-108.98 186.05 -110.96 181.1 -113 176 C-113.82 172.53 -113.82 172.53 -118 155 C-118.33 152.69 -118.66 150.38 -119 148 C-119 138.1 -119 128.2 -119 118 C-117.68 111.07 -116.36 104.14 -115 97 C-112.69 90.73 -110.38 84.46 -108 78 C-105.03 72.39 -102.06 66.78 -99 61 C-96.03 57.04 -93.06 53.08 -90 49 C-87.87 46.6 -85.74 44.21 -83.6 41.82 C-82.74 40.89 -81.88 39.96 -81 39 C-79.32 37.28 -77.64 35.57 -75.94 33.88 C-74.64 32.6 -73.34 31.32 -72 30 C-67.38 26.7 -62.76 23.4 -58 20 C-55.69 18.68 -55.69 18.68 -44 12 C-39.05 10.02 -34.1 8.04 -29 6 C-22.07 4.35 -15.14 2.7 -8 1 C-5.36 0.67 -2.72 0.34 0 0 Z " fill="#1882F0" transform="translate(391,69)"/>
<path d="M0 0 C5.61 0 11.22 0 17 0 C19.81 0.5 19.81 0.5 34 3 C37.96 4.32 41.92 5.64 46 7 C51.28 9.64 56.56 12.28 62 15 C66.29 18.3 70.58 21.6 75 25 C78.3 28.3 81.6 31.6 85 35 C87.97 39.29 90.94 43.58 94 48 C96.64 53.28 99.28 58.56 102 64 C103.32 68.29 104.64 72.58 106 77 C106.33 78.82 106.33 78.82 108 88 C108 95.92 108 103.84 108 112 C107.01 116.95 106.02 121.9 105 127 C104.18 129.31 104.18 129.31 100 141 C97.36 145.95 94.72 150.9 92 156 C90.51 157.82 90.51 157.82 83 167 C79.04 170.96 75.08 174.92 71 179 C68.69 180.49 68.69 180.49 57 188 C52.05 190.31 47.1 192.62 42 195 C39.52 195.66 39.52 195.66 27 199 C24.69 199.33 22.38 199.66 20 200 C12.08 200 4.16 200 -4 200 C-8.95 199.01 -13.9 198.02 -19 197 C-24.28 195.02 -29.56 193.04 -35 191 C-38.63 189.02 -42.26 187.04 -46 185 C-50.62 181.37 -55.24 177.74 -60 174 C-62.64 171.36 -65.28 168.72 -68 166 C-71.3 161.38 -74.6 156.76 -78 152 C-80.64 146.39 -83.28 140.78 -86 135 C-86.66 132.69 -86.66 132.69 -90 121 C-90.66 116.38 -91.32 111.76 -92 107 C-92 102.38 -92 97.76 -92 93 C-91.34 88.38 -90.68 83.76 -90 79 C-88.35 73.72 -86.7 68.44 -85 63 C-82.36 57.72 -79.72 52.44 -77 47 C-74.36 43.37 -71.72 39.74 -69 36 C-67.68 34.51 -67.68 34.51 -61 27 C-56.38 23.37 -51.76 19.74 -47 16 C-41.39 13.03 -35.78 10.06 -30 7 C-24.72 5.35 -19.44 3.7 -14 2 C-11.69 1.67 -11.69 1.67 0 0 Z " fill="#00C7CC" transform="translate(396,555)"/>
<path d="M0 0 C6.27 0 12.54 0 19 0 C23.95 0.99 28.9 1.98 34 3 C39.28 4.98 44.56 6.96 50 9 C51.81 10.15 51.81 10.15 61 16 C65.29 19.63 69.58 23.26 74 27 C76.64 30.3 79.28 33.6 82 37 C84.64 41.62 87.28 46.24 90 51 C91.65 55.29 93.3 59.58 95 64 C95.99 69.61 96.98 75.22 98 81 C98 85.95 98 90.9 98 96 C97.01 101.28 96.02 106.56 95 112 C94.18 114.31 94.18 114.31 90 126 C87.36 130.62 84.72 135.24 82 140 C78.37 143.96 74.74 147.92 71 152 C67.7 154.97 64.4 157.94 61 161 C56.38 163.64 51.76 166.28 47 169 C44.85 169.82 44.85 169.82 34 174 C28.39 174.99 22.78 175.98 17 177 C12.05 177 7.1 177 2 177 C-3.61 176.01 -9.22 175.02 -15 174 C-19.95 172.02 -24.9 170.04 -30 168 C-31.98 166.85 -31.98 166.85 -42 161 C-45.96 157.37 -49.92 153.74 -54 150 C-56.97 146.7 -59.94 143.4 -63 140 C-65.97 134.72 -68.94 129.44 -72 124 C-73.65 119.05 -75.3 114.1 -77 109 C-77.66 104.71 -78.32 100.42 -79 96 C-79 91.05 -79 86.1 -79 81 C-78.01 75.39 -77.02 69.78 -76 64 C-74.35 59.71 -72.7 55.42 -71 51 C-69.02 47.37 -67.04 43.74 -65 40 C-63.35 37.84 -61.69 35.68 -60.02 33.54 C-59.36 32.7 -58.69 31.86 -58 31 C-56.7 29.47 -55.39 27.95 -54.06 26.44 C-53.05 25.3 -52.04 24.17 -51 23 C-46.71 19.7 -42.42 16.4 -38 13 C-33.38 10.69 -28.76 8.38 -24 6 C-20.04 4.68 -16.08 3.36 -12 2 C-8.04 1.34 -4.08 0.68 0 0 Z " fill="#00CAFF" transform="translate(168,340)"/>
<path d="M0 0 C5.28 0 10.56 0 16 0 C20.29 0.99 24.58 1.98 29 3 C33.29 5.31 37.58 7.62 42 10 C43.65 11.49 43.65 11.49 52 19 C54.31 21.97 56.62 24.94 59 28 C60.65 31.3 62.3 34.6 64 38 C64.99 41.63 65.98 45.26 67 49 C67 55.6 67 62.2 67 69 C65.68 73.62 64.36 78.24 63 83 C60.69 86.96 58.38 90.92 56 95 C54.68 96.49 54.68 96.49 48 104 C44.7 106.31 41.4 108.62 38 111 C34.37 112.65 30.74 114.3 27 116 C25.68 116.33 25.68 116.33 19 118 C11.74 118 4.48 118 -3 118 C-7.29 116.68 -11.58 115.36 -16 114 C-17.98 112.85 -17.98 112.85 -28 107 C-31.63 103.37 -35.26 99.74 -39 96 C-41.64 91.38 -44.28 86.76 -47 82 C-48.32 77.05 -49.64 72.1 -51 67 C-51 62.05 -51 57.1 -51 52 C-50.01 47.71 -49.02 43.42 -48 39 C-46.02 35.04 -44.04 31.08 -42 27 C-39.36 23.7 -36.72 20.4 -34 17 C-32.68 15.85 -32.68 15.85 -26 10 C-21.38 7.69 -16.76 5.38 -12 3 C-8.04 2.01 -4.08 1.02 0 0 Z " fill="#A068FF" transform="translate(623,823)"/>
    </g>
</svg>
